<svg xmlns="http://www.w3.org/2000/svg" viewBox="0 0 100 100">
  <!-- Christmas Tree - wider and fills more space -->
  <path d="M50 5 L42 22 L50 15 L58 22 Z" fill="#228B22" stroke="#1a6b1a" stroke-width="1.5"/>
  <path d="M50 12 L35 35 L50 25 L65 35 Z" fill="#228B22" stroke="#1a6b1a" stroke-width="1.5"/>
  <path d="M50 22 L28 52 L50 38 L72 52 Z" fill="#228B22" stroke="#1a6b1a" stroke-width="1.5"/>
  <path d="M50 35 L20 70 L50 52 L80 70 Z" fill="#228B22" stroke="#1a6b1a" stroke-width="1.5"/>
  <!-- Trunk -->
  <rect x="45" y="70" width="10" height="15" fill="#8B4513"/>
  <!-- Star on top -->
  <path d="M50 2 L52 6 L56 6 L52.5 9 L54 13 L50 10 L46 13 L47.5 9 L44 6 L48 6 Z" fill="#FFD700"/>
  <!-- Ornaments - larger and more visible -->
  <circle cx="38" cy="28" r="3" fill="#FF0000"/>
  <circle cx="62" cy="32" r="3" fill="#FFD700"/>
  <circle cx="32" cy="45" r="3" fill="#FF0000"/>
  <circle cx="68" cy="48" r="3" fill="#FFD700"/>
  <circle cx="40" cy="60" r="3" fill="#FF0000"/>
  <circle cx="60" cy="63" r="3" fill="#FFD700"/>
</svg>

